<mxfile host="app.diagrams.net" modified="2022-11-01T09:51:37.259Z" agent="5.0 (Macintosh; Intel Mac OS X 10_15_7) AppleWebKit/537.36 (KHTML, like Gecko) Chrome/107.0.0.0 Safari/537.36" etag="O8BIwwpwdVUaZBpx7vnb" version="20.5.1" type="github">
  <diagram id="WK8CD7RN7CL_Olci5g2X" name="第 1 页">
    <mxGraphModel dx="2046" dy="993" grid="1" gridSize="10" guides="1" tooltips="1" connect="1" arrows="1" fold="1" page="1" pageScale="1" pageWidth="827" pageHeight="1169" math="0" shadow="0">
      <root>
        <mxCell id="0" />
        <mxCell id="1" parent="0" />
        <mxCell id="r36OYezJOWodSLHaK5Yr-1" value="echarts" style="rounded=1;whiteSpace=wrap;html=1;" vertex="1" parent="1">
          <mxGeometry x="70" y="460" width="130" height="50" as="geometry" />
        </mxCell>
        <mxCell id="r36OYezJOWodSLHaK5Yr-2" value="series(/src/chart)" style="rounded=1;whiteSpace=wrap;html=1;" vertex="1" parent="1">
          <mxGeometry x="300" y="280" width="180" height="40" as="geometry" />
        </mxCell>
        <mxCell id="r36OYezJOWodSLHaK5Yr-3" value="components(/src/component)" style="rounded=1;whiteSpace=wrap;html=1;" vertex="1" parent="1">
          <mxGeometry x="300" y="630" width="180" height="40" as="geometry" />
        </mxCell>
        <mxCell id="r36OYezJOWodSLHaK5Yr-9" value="" style="endArrow=classic;html=1;rounded=0;entryX=0;entryY=0.5;entryDx=0;entryDy=0;exitX=0.5;exitY=0;exitDx=0;exitDy=0;" edge="1" parent="1" source="r36OYezJOWodSLHaK5Yr-1" target="r36OYezJOWodSLHaK5Yr-2">
          <mxGeometry width="50" height="50" relative="1" as="geometry">
            <mxPoint x="230" y="410" as="sourcePoint" />
            <mxPoint x="280" y="360" as="targetPoint" />
            <Array as="points">
              <mxPoint x="135" y="300" />
            </Array>
          </mxGeometry>
        </mxCell>
        <mxCell id="r36OYezJOWodSLHaK5Yr-10" value="系列（series）+ 组件（components）= A echarts instance" style="rounded=1;whiteSpace=wrap;html=1;" vertex="1" parent="1">
          <mxGeometry x="244" y="70" width="340" height="60" as="geometry" />
        </mxCell>
        <mxCell id="r36OYezJOWodSLHaK5Yr-12" value="" style="endArrow=classic;html=1;rounded=0;exitX=0.5;exitY=1;exitDx=0;exitDy=0;entryX=0;entryY=0.5;entryDx=0;entryDy=0;" edge="1" parent="1" source="r36OYezJOWodSLHaK5Yr-1" target="r36OYezJOWodSLHaK5Yr-3">
          <mxGeometry width="50" height="50" relative="1" as="geometry">
            <mxPoint x="390" y="530" as="sourcePoint" />
            <mxPoint x="440" y="480" as="targetPoint" />
            <Array as="points">
              <mxPoint x="135" y="650" />
            </Array>
          </mxGeometry>
        </mxCell>
      </root>
    </mxGraphModel>
  </diagram>
</mxfile>
